<svg width="937" height="982" viewBox="0 0 937 982" fill="none" xmlns="http://www.w3.org/2000/svg">
<path d="M46.6191 935V46.2872H935.332V935H46.6191Z" stroke="#4E5A3A" stroke-width="3.08581"/>
<path d="M46.6191 157.376H935.332" stroke="#4E5A3A" stroke-width="3.08581"/>
<path d="M46.6191 268.465H935.332" stroke="#4E5A3A" stroke-width="3.08581"/>
<path d="M46.6191 379.555H935.332" stroke="#4E5A3A" stroke-width="3.08581"/>
<path d="M46.6191 490.644H935.332" stroke="#4E5A3A" stroke-width="3.08581"/>
<path d="M46.6191 601.733H935.332" stroke="#4E5A3A" stroke-width="3.08581"/>
<path d="M46.6191 712.822H935.332" stroke="#4E5A3A" stroke-width="3.08581"/>
<path d="M46.6191 823.911H935.332" stroke="#4E5A3A" stroke-width="3.08581"/>
<path d="M157.708 46.2872V935" stroke="#4E5A3A" stroke-width="3.08581"/>
<path d="M268.797 46.2872V935" stroke="#4E5A3A" stroke-width="3.08581"/>
<path d="M379.887 46.2872V935" stroke="#4E5A3A" stroke-width="3.08581"/>
<path d="M490.976 46.2872V935" stroke="#4E5A3A" stroke-width="3.08581"/>
<path d="M602.064 46.2872V935" stroke="#4E5A3A" stroke-width="3.08581"/>
<path d="M713.153 46.2872V935" stroke="#4E5A3A" stroke-width="3.08581"/>
<path d="M824.243 46.2872V935" stroke="#4E5A3A" stroke-width="3.08581"/>
<circle cx="46.6192" cy="157.287" r="44.7442" stroke="white" stroke-opacity="0.5" stroke-width="3.08581"/>
<circle cx="268.619" cy="157.287" r="44.7442" stroke="white" stroke-opacity="0.5" stroke-width="3.08581"/>
<circle cx="268.619" cy="268.287" r="44.7442" stroke="white" stroke-opacity="0.5" stroke-width="3.08581"/>
<circle cx="268.619" cy="380.287" r="44.7442" stroke="white" stroke-opacity="0.5" stroke-width="3.08581"/>
<circle cx="379.619" cy="268.287" r="44.7442" stroke="white" stroke-opacity="0.5" stroke-width="3.08581"/>
<circle cx="268.619" cy="46.2871" r="44.7442" stroke="white" stroke-opacity="0.5" stroke-width="3.08581"/>
<circle cx="380.619" cy="46.2871" r="44.7442" stroke="white" stroke-opacity="0.5" stroke-width="3.08581"/>
<circle cx="490.619" cy="46.2871" r="44.7442" stroke="white" stroke-opacity="0.5" stroke-width="3.08581"/>
<circle cx="602.619" cy="46.2871" r="44.7442" stroke="white" stroke-opacity="0.5" stroke-width="3.08581"/>
<circle cx="602.619" cy="157.287" r="44.7442" stroke="white" stroke-opacity="0.5" stroke-width="3.08581"/>
<circle cx="713.619" cy="157.287" r="44.7442" stroke="white" stroke-opacity="0.5" stroke-width="3.08581"/>
<circle cx="824.619" cy="157.287" r="44.7442" stroke="white" stroke-opacity="0.5" stroke-width="3.08581"/>
<circle cx="823.619" cy="268.287" r="44.7442" stroke="white" stroke-opacity="0.5" stroke-width="3.08581"/>
<circle cx="713.619" cy="380.287" r="44.7442" stroke="white" stroke-opacity="0.5" stroke-width="3.08581"/>
<circle cx="713.619" cy="491.287" r="44.7442" stroke="white" stroke-opacity="0.5" stroke-width="3.08581"/>
<circle cx="602.619" cy="491.287" r="44.7442" stroke="white" stroke-opacity="0.5" stroke-width="3.08581"/>
<circle cx="602.619" cy="601.287" r="44.7442" stroke="white" stroke-opacity="0.5" stroke-width="3.08581"/>
<circle cx="602.619" cy="713.287" r="44.7442" stroke="white" stroke-opacity="0.5" stroke-width="3.08581"/>
<circle cx="602.619" cy="823.287" r="44.7442" stroke="white" stroke-opacity="0.5" stroke-width="3.08581"/>
<circle cx="490.619" cy="824.287" r="44.7442" stroke="white" stroke-opacity="0.5" stroke-width="3.08581"/>
<circle cx="379.619" cy="935.287" r="44.7442" stroke="white" stroke-opacity="0.5" stroke-width="3.08581"/>
<circle cx="157.619" cy="935.287" r="44.7442" stroke="white" stroke-opacity="0.5" stroke-width="3.08581"/>
<circle cx="46.6192" cy="824.287" r="44.7442" stroke="white" stroke-opacity="0.5" stroke-width="3.08581"/>
<circle cx="602.619" cy="935.287" r="44.7442" stroke="white" stroke-opacity="0.5" stroke-width="3.08581"/>
<circle cx="713.619" cy="601.287" r="44.7442" stroke="white" stroke-opacity="0.5" stroke-width="3.08581"/>
<circle cx="713.619" cy="713.287" r="44.7442" stroke="white" stroke-opacity="0.5" stroke-width="3.08581"/>
<circle cx="713.619" cy="823.287" r="44.7442" stroke="white" stroke-opacity="0.5" stroke-width="3.08581"/>
<circle cx="713.619" cy="935.287" r="44.7442" stroke="white" stroke-opacity="0.5" stroke-width="3.08581"/>
<circle cx="823.619" cy="46.2871" r="44.7442" stroke="black" stroke-opacity="0.5" stroke-width="3.08581"/>
<circle cx="46.6192" cy="268.287" r="44.7442" stroke="black" stroke-opacity="0.5" stroke-width="3.08581"/>
<circle cx="157.619" cy="46.2871" r="44.7442" stroke="black" stroke-opacity="0.5" stroke-width="3.08581"/>
<circle cx="157.619" cy="157.287" r="44.7442" stroke="black" stroke-opacity="0.5" stroke-width="3.08581"/>
<circle cx="157.619" cy="268.287" r="44.7442" stroke="black" stroke-opacity="0.5" stroke-width="3.08581"/>
<circle cx="157.619" cy="379.287" r="44.7442" stroke="black" stroke-opacity="0.5" stroke-width="3.08581"/>
<circle cx="157.619" cy="491.287" r="44.7442" stroke="black" stroke-opacity="0.5" stroke-width="3.08581"/>
<circle cx="268.619" cy="491.287" r="44.7442" stroke="black" stroke-opacity="0.5" stroke-width="3.08581"/>
<circle cx="268.619" cy="713.287" r="44.7442" stroke="black" stroke-opacity="0.5" stroke-width="3.08581"/>
<circle cx="379.619" cy="824.287" r="44.7442" stroke="black" stroke-opacity="0.5" stroke-width="3.08581"/>
<circle cx="379.619" cy="713.287" r="44.7442" stroke="black" stroke-opacity="0.5" stroke-width="3.08581"/>
<circle cx="379.619" cy="601.287" r="44.7442" stroke="black" stroke-opacity="0.5" stroke-width="3.08581"/>
<circle cx="380.619" cy="380.287" r="44.7442" stroke="black" stroke-opacity="0.5" stroke-width="3.08581"/>
<circle cx="379.619" cy="157.287" r="44.7442" stroke="black" stroke-opacity="0.5" stroke-width="3.08581"/>
<circle cx="491.619" cy="157.287" r="44.7442" stroke="black" stroke-opacity="0.5" stroke-width="3.08581"/>
<circle cx="490.619" cy="268.287" r="44.7442" stroke="black" stroke-opacity="0.5" stroke-width="3.08581"/>
<circle cx="602.619" cy="268.287" r="44.7442" stroke="black" stroke-opacity="0.5" stroke-width="3.08581"/>
<circle cx="713.619" cy="268.287" r="44.7442" stroke="black" stroke-opacity="0.5" stroke-width="3.08581"/>
<circle cx="824.619" cy="380.287" r="44.7442" stroke="black" stroke-opacity="0.5" stroke-width="3.08581"/>
<circle cx="824.619" cy="491.287" r="44.7442" stroke="black" stroke-opacity="0.5" stroke-width="3.08581"/>
<circle cx="824.619" cy="601.287" r="44.7442" stroke="black" stroke-opacity="0.5" stroke-width="3.08581"/>
<circle cx="824.619" cy="713.287" r="44.7442" stroke="black" stroke-opacity="0.5" stroke-width="3.08581"/>
<circle cx="824.619" cy="824.287" r="44.7442" stroke="black" stroke-opacity="0.5" stroke-width="3.08581"/>
<circle cx="823.619" cy="935.287" r="44.7442" stroke="black" stroke-opacity="0.5" stroke-width="3.08581"/>
<circle cx="602.619" cy="379.287" r="44.7442" stroke="black" stroke-opacity="0.5" stroke-width="3.08581"/>
<circle cx="490.619" cy="379.287" r="44.7442" stroke="black" stroke-opacity="0.5" stroke-width="3.08581"/>
<circle cx="490.619" cy="491.287" r="44.7442" stroke="black" stroke-opacity="0.5" stroke-width="3.08581"/>
<circle cx="491.619" cy="601.287" r="44.7442" stroke="black" stroke-opacity="0.5" stroke-width="3.08581"/>
<circle cx="490.619" cy="713.287" r="44.7442" stroke="black" stroke-opacity="0.5" stroke-width="3.08581"/>
<circle cx="46.6192" cy="379.287" r="44.7442" stroke="black" stroke-opacity="0.5" stroke-width="3.08581"/>
<circle cx="46.6192" cy="601.287" r="44.7442" stroke="black" stroke-opacity="0.5" stroke-width="3.08581"/>
<circle cx="157.619" cy="713.287" r="44.7442" stroke="black" stroke-opacity="0.5" stroke-width="3.08581"/>
<circle cx="157.619" cy="824.287" r="44.7442" stroke="black" stroke-opacity="0.5" stroke-width="3.08581"/>
<circle cx="46.6192" cy="934.287" r="44.7442" stroke="black" stroke-opacity="0.5" stroke-width="3.08581"/>
<circle cx="268.619" cy="934.287" r="44.7442" stroke="black" stroke-opacity="0.5" stroke-width="3.08581"/>
<circle cx="491.619" cy="935.287" r="44.7442" stroke="black" stroke-opacity="0.5" stroke-width="3.08581"/>
</svg>
