<svg width="100" height="100" viewBox="0 0 100 100" fill="none" xmlns="http://www.w3.org/2000/svg">
<path d="M34.333 68.555L34.1592 68.8563L30.0151 76.0429L34.333 68.555ZM34.333 68.555L34.1109 68.2873M34.333 68.555L34.1109 68.2873M34.1109 68.2873C32.9369 66.8719 31.5851 65.9215 30.0482 65.4782C28.5123 65.0351 26.8354 65.111 25.0315 65.6741L24.8455 65.7321L24.7479 65.9006L21.658 71.2305L21.6572 71.2318M34.1109 68.2873L21.6572 71.2318M21.6572 71.2318C21.3413 71.7806 21.1366 72.3862 21.0548 73.0141C20.9729 73.642 21.0156 74.2799 21.1803 74.8913C21.3449 75.5028 21.6284 76.0758 22.0146 76.5776C22.4007 77.0795 22.8819 77.5004 23.4307 77.8163C23.9794 78.1322 24.5851 78.3369 25.213 78.4187C25.8409 78.5006 26.4787 78.4579 27.0902 78.2933C27.7016 78.1286 28.2746 77.8451 28.7765 77.459C29.2782 77.0729 29.6991 76.5918 30.0149 76.0432L21.6572 71.2318ZM56.877 32.7853L57.173 33.2977L69.7396 55.0493L80.6807 55.0493C80.6811 55.0493 80.6814 55.0493 80.6818 55.0493C81.3145 55.0471 81.9413 55.17 82.5264 55.4109C83.1117 55.6519 83.6436 56.0063 84.0915 56.4536C84.5394 56.901 84.8944 57.4324 85.1362 58.0175C85.3777 58.6021 85.5013 59.2287 85.5 59.8612M56.877 32.7853L80.6826 64.1789L80.6807 64.6789C80.6811 64.6789 80.6814 64.6789 80.6818 64.6789C81.315 64.6811 81.9423 64.558 82.5277 64.3168C83.1134 64.0754 83.6456 63.7205 84.0936 63.2725C84.5416 62.8246 84.8965 62.2924 85.1378 61.7066C85.379 61.1214 85.5021 60.4942 85.5 59.8612M56.877 32.7853L56.4212 33.1627C53.6847 35.4282 51.0365 41.9523 54.7862 48.4191M56.877 32.7853L54.7862 48.4191M85.5 59.8612C85.5 59.8617 85.5 59.8622 85.5 59.8627L85 59.8615L85.5 59.8596C85.5 59.8602 85.5 59.8607 85.5 59.8612ZM56.7401 33.5478L56.9941 33.9876C57.0157 33.969 57.0373 33.9508 57.0589 33.933L56.7401 33.5478ZM56.7401 33.5478L56.3071 33.7979L56.3613 33.8917C56.4871 33.7673 56.6136 33.6525 56.7401 33.5478ZM54.7862 48.4191L55.2187 48.1683L54.7857 48.4182L54.7862 48.4191ZM50.3763 21.479L48.9231 18.9168L48.9187 18.9089L48.9139 18.9013C48.2559 17.8326 47.2072 17.0625 45.9905 16.7546C44.7739 16.4466 43.4851 16.6251 42.3979 17.2522C41.3107 17.8792 40.5108 18.9053 40.168 20.1126C39.8252 21.3199 39.9666 22.6133 40.5621 23.7181L40.5619 23.7182L40.5689 23.7303L44.8212 31.1186L31.0242 55.0283H20.3134H20.3122V55.5283L50.3763 21.479ZM50.3763 21.479L51.8634 18.914C51.8635 18.9138 51.8636 18.9136 51.8637 18.9134C52.1797 18.3648 52.6006 17.8838 53.1025 17.498C53.6046 17.1121 54.1778 16.8289 54.7895 16.6647C55.4011 16.5005 56.0391 16.4586 56.667 16.5412C57.2944 16.6237 57.8994 16.8291 58.4475 17.1456C60.7626 18.4708 61.537 21.4215 60.2167 23.7292L60.2157 23.7309L42.1411 55.0283H54.6679C57.0512 55.0283 58.8968 56.4353 59.8823 58.284C60.8637 60.1251 61.0242 62.4603 59.993 64.3932L59.8519 64.6579H59.5519H20.3134M50.3763 21.479L20.3134 64.6579M20.3134 64.6579C19.6804 64.6595 19.0533 64.5358 18.4682 64.2941C17.8832 64.0524 17.3517 63.6974 16.9043 63.2495C16.457 62.8016 16.1026 62.2697 15.8616 61.6843C15.6208 61.0994 15.4979 60.4727 15.5 59.8402L20.3134 64.6579ZM20.3134 64.6579H20.3122V64.1579L20.3134 64.6579ZM75.0172 64.1789H74.4399L74.7285 64.6789H75.3058L75.0172 64.1789Z" stroke="white"/>
</svg>
