<svg width="100" height="100" viewBox="0 0 100 100" fill="none" xmlns="http://www.w3.org/2000/svg">
<path d="M85.8475 55.8299L85.6147 55.3875L85.8475 55.8299C90.9527 53.1428 90.9527 45.8328 85.8475 43.146L33.0045 15.3338C28.2321 12.8221 22.5 16.2828 22.5 21.6758V77.3001C22.5 82.693 28.2322 86.1538 33.0045 83.6419L85.8475 55.8299ZM64.4848 49.4878L70.6403 43.8057L81.4361 49.4878L70.6403 55.1698L64.4848 49.4878ZM41.9985 70.2446L58.8333 54.7046L63.4417 58.9587L41.9985 70.2446ZM41.9985 28.7312L63.4417 40.0172L58.8333 44.271L41.9985 28.7312ZM30.1667 28.2431L53.1818 49.4878L30.1667 70.7325V28.2431Z" stroke="white"/>
</svg>
